<mxfile host="Electron" agent="Mozilla/5.0 (Windows NT 10.0; Win64; x64) AppleWebKit/537.36 (KHTML, like Gecko) draw.io/26.0.9 Chrome/128.0.6613.186 Electron/32.2.5 Safari/537.36" version="26.0.9">
  <diagram name="Seite-1" id="YLhSCKuVQI-pLna2f9S1">
    <mxGraphModel dx="1588" dy="1022" grid="1" gridSize="10" guides="1" tooltips="1" connect="1" arrows="1" fold="1" page="1" pageScale="1" pageWidth="827" pageHeight="1169" math="0" shadow="0">
      <root>
        <mxCell id="0" />
        <mxCell id="1" parent="0" />
        <mxCell id="UpAO4RL2kQrdn1HfIiO5-1" value="" style="rounded=0;whiteSpace=wrap;html=1;" parent="1" vertex="1">
          <mxGeometry x="354" y="40" width="506" height="870" as="geometry" />
        </mxCell>
        <mxCell id="UpAO4RL2kQrdn1HfIiO5-36" style="edgeStyle=orthogonalEdgeStyle;rounded=0;orthogonalLoop=1;jettySize=auto;html=1;entryX=0;entryY=0.5;entryDx=0;entryDy=0;endArrow=none;endFill=0;" parent="1" source="UpAO4RL2kQrdn1HfIiO5-2" target="UpAO4RL2kQrdn1HfIiO5-15" edge="1">
          <mxGeometry relative="1" as="geometry" />
        </mxCell>
        <mxCell id="UpAO4RL2kQrdn1HfIiO5-37" style="edgeStyle=orthogonalEdgeStyle;rounded=0;orthogonalLoop=1;jettySize=auto;html=1;entryX=0;entryY=0.5;entryDx=0;entryDy=0;endArrow=none;endFill=0;" parent="1" source="UpAO4RL2kQrdn1HfIiO5-2" target="UpAO4RL2kQrdn1HfIiO5-21" edge="1">
          <mxGeometry relative="1" as="geometry" />
        </mxCell>
        <mxCell id="UpAO4RL2kQrdn1HfIiO5-38" style="edgeStyle=orthogonalEdgeStyle;rounded=0;orthogonalLoop=1;jettySize=auto;html=1;entryX=0;entryY=0.5;entryDx=0;entryDy=0;endArrow=none;endFill=0;" parent="1" source="UpAO4RL2kQrdn1HfIiO5-2" target="UpAO4RL2kQrdn1HfIiO5-16" edge="1">
          <mxGeometry relative="1" as="geometry" />
        </mxCell>
        <mxCell id="UpAO4RL2kQrdn1HfIiO5-39" style="edgeStyle=orthogonalEdgeStyle;rounded=0;orthogonalLoop=1;jettySize=auto;html=1;entryX=0;entryY=0.5;entryDx=0;entryDy=0;endArrow=none;endFill=0;" parent="1" source="UpAO4RL2kQrdn1HfIiO5-2" target="UpAO4RL2kQrdn1HfIiO5-17" edge="1">
          <mxGeometry relative="1" as="geometry" />
        </mxCell>
        <mxCell id="UpAO4RL2kQrdn1HfIiO5-2" value="Gast" style="shape=umlActor;verticalLabelPosition=bottom;verticalAlign=top;html=1;" parent="1" vertex="1">
          <mxGeometry x="210" y="140" width="30" height="60" as="geometry" />
        </mxCell>
        <mxCell id="UpAO4RL2kQrdn1HfIiO5-13" style="edgeStyle=orthogonalEdgeStyle;rounded=0;orthogonalLoop=1;jettySize=auto;html=1;endArrow=block;endFill=0;" parent="1" source="UpAO4RL2kQrdn1HfIiO5-5" edge="1">
          <mxGeometry relative="1" as="geometry">
            <mxPoint x="225" y="450" as="targetPoint" />
          </mxGeometry>
        </mxCell>
        <mxCell id="UpAO4RL2kQrdn1HfIiO5-33" style="edgeStyle=orthogonalEdgeStyle;rounded=0;orthogonalLoop=1;jettySize=auto;html=1;entryX=0;entryY=0.5;entryDx=0;entryDy=0;endArrow=none;endFill=0;" parent="1" source="UpAO4RL2kQrdn1HfIiO5-5" target="UpAO4RL2kQrdn1HfIiO5-24" edge="1">
          <mxGeometry relative="1" as="geometry" />
        </mxCell>
        <mxCell id="UpAO4RL2kQrdn1HfIiO5-34" style="edgeStyle=orthogonalEdgeStyle;rounded=0;orthogonalLoop=1;jettySize=auto;html=1;endArrow=none;endFill=0;" parent="1" source="UpAO4RL2kQrdn1HfIiO5-5" target="UpAO4RL2kQrdn1HfIiO5-23" edge="1">
          <mxGeometry relative="1" as="geometry" />
        </mxCell>
        <mxCell id="UpAO4RL2kQrdn1HfIiO5-5" value="MItarbeiter" style="shape=umlActor;verticalLabelPosition=bottom;verticalAlign=top;html=1;" parent="1" vertex="1">
          <mxGeometry x="210" y="563" width="30" height="60" as="geometry" />
        </mxCell>
        <mxCell id="UpAO4RL2kQrdn1HfIiO5-12" value="" style="edgeStyle=orthogonalEdgeStyle;rounded=0;orthogonalLoop=1;jettySize=auto;html=1;endArrow=block;endFill=0;" parent="1" source="UpAO4RL2kQrdn1HfIiO5-6" edge="1">
          <mxGeometry relative="1" as="geometry">
            <mxPoint x="225" y="220" as="targetPoint" />
          </mxGeometry>
        </mxCell>
        <mxCell id="UpAO4RL2kQrdn1HfIiO5-35" style="edgeStyle=orthogonalEdgeStyle;rounded=0;orthogonalLoop=1;jettySize=auto;html=1;entryX=0;entryY=0.5;entryDx=0;entryDy=0;endArrow=none;endFill=0;" parent="1" source="UpAO4RL2kQrdn1HfIiO5-6" target="UpAO4RL2kQrdn1HfIiO5-18" edge="1">
          <mxGeometry relative="1" as="geometry" />
        </mxCell>
        <mxCell id="UpAO4RL2kQrdn1HfIiO5-6" value="Kunde" style="shape=umlActor;verticalLabelPosition=bottom;verticalAlign=top;html=1;" parent="1" vertex="1">
          <mxGeometry x="210" y="362" width="30" height="60" as="geometry" />
        </mxCell>
        <mxCell id="UpAO4RL2kQrdn1HfIiO5-14" style="edgeStyle=orthogonalEdgeStyle;rounded=0;orthogonalLoop=1;jettySize=auto;html=1;endArrow=block;endFill=0;" parent="1" source="UpAO4RL2kQrdn1HfIiO5-7" edge="1">
          <mxGeometry relative="1" as="geometry">
            <mxPoint x="225" y="650" as="targetPoint" />
          </mxGeometry>
        </mxCell>
        <mxCell id="UpAO4RL2kQrdn1HfIiO5-32" style="edgeStyle=orthogonalEdgeStyle;rounded=0;orthogonalLoop=1;jettySize=auto;html=1;entryX=0;entryY=0.5;entryDx=0;entryDy=0;endArrow=none;endFill=0;" parent="1" source="UpAO4RL2kQrdn1HfIiO5-7" target="UpAO4RL2kQrdn1HfIiO5-25" edge="1">
          <mxGeometry relative="1" as="geometry" />
        </mxCell>
        <mxCell id="UpAO4RL2kQrdn1HfIiO5-7" value="Admin" style="shape=umlActor;verticalLabelPosition=bottom;verticalAlign=top;html=1;" parent="1" vertex="1">
          <mxGeometry x="210" y="774" width="30" height="60" as="geometry" />
        </mxCell>
        <mxCell id="UpAO4RL2kQrdn1HfIiO5-15" value="Freien Zimmer suchen" style="ellipse;whiteSpace=wrap;html=1;" parent="1" vertex="1">
          <mxGeometry x="410" y="60" width="94" height="60" as="geometry" />
        </mxCell>
        <mxCell id="UpAO4RL2kQrdn1HfIiO5-16" value="Bewertungen sehen" style="ellipse;whiteSpace=wrap;html=1;" parent="1" vertex="1">
          <mxGeometry x="410" y="190" width="104" height="50" as="geometry" />
        </mxCell>
        <mxCell id="UpAO4RL2kQrdn1HfIiO5-17" value="Hotelbeschreibung" style="ellipse;whiteSpace=wrap;html=1;" parent="1" vertex="1">
          <mxGeometry x="410" y="250" width="114" height="40" as="geometry" />
        </mxCell>
        <mxCell id="UpAO4RL2kQrdn1HfIiO5-18" value="Bewertungen abgeben" style="ellipse;whiteSpace=wrap;html=1;" parent="1" vertex="1">
          <mxGeometry x="414" y="367" width="130" height="50" as="geometry" />
        </mxCell>
        <mxCell id="UpAO4RL2kQrdn1HfIiO5-21" value="Zimmer Buchen" style="ellipse;whiteSpace=wrap;html=1;" parent="1" vertex="1">
          <mxGeometry x="410" y="130" width="104" height="50" as="geometry" />
        </mxCell>
        <mxCell id="UpAO4RL2kQrdn1HfIiO5-23" value="Rechnungsstellung" style="ellipse;whiteSpace=wrap;html=1;" parent="1" vertex="1">
          <mxGeometry x="414" y="568" width="120" height="50" as="geometry" />
        </mxCell>
        <mxCell id="UpAO4RL2kQrdn1HfIiO5-24" value="Eintragung oder Änderung an der Datenbank" style="ellipse;whiteSpace=wrap;html=1;" parent="1" vertex="1">
          <mxGeometry x="409" y="630" width="140" height="70" as="geometry" />
        </mxCell>
        <mxCell id="UpAO4RL2kQrdn1HfIiO5-25" value="Bewertungen freigeben" style="ellipse;whiteSpace=wrap;html=1;" parent="1" vertex="1">
          <mxGeometry x="410" y="780" width="130" height="50" as="geometry" />
        </mxCell>
        <mxCell id="UpAO4RL2kQrdn1HfIiO5-30" style="edgeStyle=orthogonalEdgeStyle;rounded=0;orthogonalLoop=1;jettySize=auto;html=1;dashed=1;exitX=1;exitY=0.5;exitDx=0;exitDy=0;entryX=0;entryY=0.5;entryDx=0;entryDy=0;endArrow=open;endFill=0;" parent="1" source="UpAO4RL2kQrdn1HfIiO5-25" target="UpAO4RL2kQrdn1HfIiO5-26" edge="1">
          <mxGeometry relative="1" as="geometry" />
        </mxCell>
        <mxCell id="UpAO4RL2kQrdn1HfIiO5-31" value="&amp;lt;&amp;lt;Include&amp;gt;&amp;gt;" style="edgeLabel;html=1;align=center;verticalAlign=middle;resizable=0;points=[];" parent="UpAO4RL2kQrdn1HfIiO5-30" vertex="1" connectable="0">
          <mxGeometry x="-0.1452" relative="1" as="geometry">
            <mxPoint as="offset" />
          </mxGeometry>
        </mxCell>
        <mxCell id="UpAO4RL2kQrdn1HfIiO5-26" value="Bewertungen Prüfen" style="ellipse;whiteSpace=wrap;html=1;" parent="1" vertex="1">
          <mxGeometry x="690" y="780" width="120" height="50" as="geometry" />
        </mxCell>
      </root>
    </mxGraphModel>
  </diagram>
</mxfile>
